<?xml version="1.0" encoding="UTF-8" standalone="no"?>
<!-- Created with Inkscape (http://www.inkscape.org/) -->

<svg
   xmlns:osb="http://www.openswatchbook.org/uri/2009/osb"
   xmlns:dc="http://purl.org/dc/elements/1.1/"
   xmlns:cc="http://creativecommons.org/ns#"
   xmlns:rdf="http://www.w3.org/1999/02/22-rdf-syntax-ns#"
   xmlns:svg="http://www.w3.org/2000/svg"
   xmlns="http://www.w3.org/2000/svg"
   xmlns:xlink="http://www.w3.org/1999/xlink"
   xmlns:sodipodi="http://sodipodi.sourceforge.net/DTD/sodipodi-0.dtd"
   xmlns:inkscape="http://www.inkscape.org/namespaces/inkscape"
   width="260"
   height="260"
   viewBox="0 0 68.791667 68.791667"
   version="1.1"
   id="svg8"
   inkscape:export-filename="/home/cybernetics/bitmap.png"
   inkscape:export-xdpi="96"
   inkscape:export-ydpi="96"
   sodipodi:docname="favicon.svg"
   inkscape:version="0.92.3 (d244b95, 2018-08-02)">
  <defs
     id="defs2">
    <linearGradient
       id="linearGradient6597"
       osb:paint="solid">
      <stop
         style="stop-color:#1e46e8;stop-opacity:1;"
         offset="0"
         id="stop6595" />
    </linearGradient>
    <linearGradient
       id="linearGradient6589"
       osb:paint="solid">
      <stop
         style="stop-color:#32e81e;stop-opacity:1;"
         offset="0"
         id="stop6587" />
    </linearGradient>
    <linearGradient
       id="linearGradient6553"
       osb:paint="solid">
      <stop
         style="stop-color:#000000;stop-opacity:1;"
         offset="0"
         id="stop6551" />
    </linearGradient>
    <linearGradient
       id="linearGradient6523"
       osb:paint="solid">
      <stop
         style="stop-color:#000000;stop-opacity:1;"
         offset="0"
         id="stop6521" />
    </linearGradient>
    <linearGradient
       id="linearGradient6517"
       osb:paint="solid">
      <stop
         style="stop-color:#000000;stop-opacity:1;"
         offset="0"
         id="stop6515" />
    </linearGradient>
    <linearGradient
       id="linearGradient6500"
       osb:paint="solid">
      <stop
         style="stop-color:#000000;stop-opacity:1;"
         offset="0"
         id="stop6498" />
    </linearGradient>
    <linearGradient
       id="linearGradient6492">
      <stop
         style="stop-color:#000000;stop-opacity:1;"
         offset="0"
         id="stop6490" />
    </linearGradient>
    <inkscape:path-effect
       effect="bspline"
       id="path-effect4860"
       is_visible="true"
       weight="33.333333"
       steps="2"
       helper_size="0"
       apply_no_weight="true"
       apply_with_weight="true"
       only_selected="false" />
    <inkscape:path-effect
       effect="bspline"
       id="path-effect272"
       is_visible="true"
       weight="33.333333"
       steps="2"
       helper_size="0"
       apply_no_weight="true"
       apply_with_weight="true"
       only_selected="false" />
    <inkscape:path-effect
       effect="bspline"
       id="path-effect246"
       is_visible="true"
       weight="33.333333"
       steps="2"
       helper_size="0"
       apply_no_weight="true"
       apply_with_weight="true"
       only_selected="false" />
    <inkscape:path-effect
       effect="bspline"
       id="path-effect218"
       is_visible="true"
       weight="33.333333"
       steps="2"
       helper_size="0"
       apply_no_weight="true"
       apply_with_weight="true"
       only_selected="false" />
    <inkscape:path-effect
       effect="spiro"
       id="path-effect130"
       is_visible="true" />
    <inkscape:path-effect
       effect="spiro"
       id="path-effect108"
       is_visible="true" />
    <inkscape:path-effect
       effect="spiro"
       id="path-effect82"
       is_visible="true" />
    <inkscape:path-effect
       effect="bspline"
       id="path-effect48"
       is_visible="true"
       weight="33.333333"
       steps="2"
       helper_size="0"
       apply_no_weight="true"
       apply_with_weight="true"
       only_selected="false" />
    <inkscape:path-effect
       effect="bspline"
       id="path-effect48-3"
       is_visible="true"
       weight="33.333333"
       steps="2"
       helper_size="0"
       apply_no_weight="true"
       apply_with_weight="true"
       only_selected="false" />
    <inkscape:path-effect
       effect="spiro"
       id="path-effect82-7"
       is_visible="true" />
    <inkscape:path-effect
       effect="spiro"
       id="path-effect108-3"
       is_visible="true" />
    <inkscape:path-effect
       effect="bspline"
       id="path-effect218-6"
       is_visible="true"
       weight="33.333333"
       steps="2"
       helper_size="0"
       apply_no_weight="true"
       apply_with_weight="true"
       only_selected="false" />
    <inkscape:path-effect
       effect="bspline"
       id="path-effect246-9"
       is_visible="true"
       weight="33.333333"
       steps="2"
       helper_size="0"
       apply_no_weight="true"
       apply_with_weight="true"
       only_selected="false" />
    <inkscape:path-effect
       effect="bspline"
       id="path-effect272-2"
       is_visible="true"
       weight="33.333333"
       steps="2"
       helper_size="0"
       apply_no_weight="true"
       apply_with_weight="true"
       only_selected="false" />
    <linearGradient
       inkscape:collect="always"
       xlink:href="#linearGradient6589"
       id="linearGradient6591"
       x1="281.6236"
       y1="549.75269"
       x2="437.08432"
       y2="549.75269"
       gradientUnits="userSpaceOnUse"
       gradientTransform="matrix(0.23591704,0,0,0.32714406,-66.354425,82.831718)" />
    <linearGradient
       inkscape:collect="always"
       xlink:href="#linearGradient6597"
       id="linearGradient6599"
       x1="430.09055"
       y1="545.09796"
       x2="531.08807"
       y2="545.09796"
       gradientUnits="userSpaceOnUse"
       gradientTransform="matrix(0.23591704,0,0,0.32714406,-66.354425,82.831718)" />
  </defs>
  <sodipodi:namedview
     id="base"
     pagecolor="#ffffff"
     bordercolor="#666666"
     borderopacity="1.0"
     inkscape:pageopacity="0.0"
     inkscape:pageshadow="2"
     inkscape:zoom="1.979899"
     inkscape:cx="19.012756"
     inkscape:cy="90.452974"
     inkscape:document-units="mm"
     inkscape:current-layer="layer1"
     showgrid="false"
     inkscape:window-width="1920"
     inkscape:window-height="996"
     inkscape:window-x="0"
     inkscape:window-y="28"
     inkscape:window-maximized="1"
     units="px" />
  <metadata
     id="metadata5">
    <rdf:RDF>
      <cc:Work
         rdf:about="">
        <dc:format>image/svg+xml</dc:format>
        <dc:type
           rdf:resource="http://purl.org/dc/dcmitype/StillImage" />
        <dc:title></dc:title>
      </cc:Work>
    </rdf:RDF>
  </metadata>
  <g
     inkscape:label="Layer 1"
     inkscape:groupmode="layer"
     id="layer1"
     style="display:inline"
     transform="translate(-4.0145767e-8,-228.20834)">
    <path
       style="fill:#ffffff;fill-opacity:1;stroke:#000000;stroke-width:0.27824834;stroke-linecap:butt;stroke-linejoin:miter;stroke-miterlimit:4;stroke-dasharray:none;stroke-opacity:1"
       d="m -0.23422453,250.2386 c 1.51293373,3.102 2.93710213,6.022 5.95288803,5.38795 3.0157859,-0.63406 7.5781755,-4.91301 9.8593115,-7.05243 2.281136,-2.13942 2.281136,-2.13942 2.281136,-2.13942 0,0 0,0 0,0"
       id="path216"
       inkscape:connector-curvature="0"
       inkscape:original-d="m -0.23422453,250.2386 c 1.51316003,3.10189 2.93741703,6.02185 4.40579693,9.0333 4.562819,-4.27947 9.1252476,-8.55838 13.6875386,-12.8372 2.36e-4,-3.3e-4 0,0 0,0 v 0"
       sodipodi:nodetypes="ccccc"
       inkscape:path-effect="#path-effect218"
       inkscape:export-xdpi="96"
       inkscape:export-ydpi="96" />
    <path
       style="fill:none;stroke:#000000;stroke-width:0.27781078px;stroke-linecap:butt;stroke-linejoin:miter;stroke-opacity:1"
       d="m 32.643711,232.74369 c -1.5039,-3.11046 -2.919469,-6.03823 -8.466582,-3.06947 -5.547114,2.96875 -15.1792945,11.92406 -19.9085779,16.37572 -4.72928338,4.45167 -4.55728921,4.39976 -4.38386963,4.34743"
       id="path216-2"
       inkscape:connector-curvature="0"
       inkscape:original-d="m 32.643711,232.74369 c -1.504172,-3.11033 -2.919757,-6.03809 -4.379482,-9.05792 -9.634011,8.95742 -19.2662116,17.91271 -28.89921553,26.86842 0.172952,-0.0569 0.346148,-0.10482 0.519668,-0.15682"
       sodipodi:nodetypes="cccc"
       inkscape:path-effect="#path-effect218-6"
       inkscape:export-xdpi="96"
       inkscape:export-ydpi="96" />
    <path
       style="fill:none;stroke:#000000;stroke-width:0.27781078px;stroke-linecap:butt;stroke-linejoin:miter;stroke-opacity:1"
       d="m 23.350374,241.37666 c 6.698934,13.8333 13.398018,27.66691 13.649563,37.68032 0.251545,10.01342 -5.943913,16.20567 -12.156798,17.58554 -6.212885,1.37988 -12.440769,-2.05382 -18.6686016,-5.48748"
       id="path244"
       inkscape:connector-curvature="0"
       inkscape:original-d="m 23.350374,241.37666 c 6.699136,13.8332 13.398239,27.6668 20.097244,41.50081 -6.196185,6.19288 -12.391656,12.38512 -18.588679,18.57906 -6.228461,-3.43454 -12.456379,-6.86817 -18.6844016,-10.30149"
       sodipodi:nodetypes="cccc"
       inkscape:path-effect="#path-effect246"
       inkscape:export-xdpi="96"
       inkscape:export-ydpi="96" />
    <path
       style="fill:none;stroke:#000000;stroke-width:0.2408776px;stroke-linecap:butt;stroke-linejoin:miter;stroke-opacity:1"
       d="m 17.704356,246.15235 c 6.164648,12.63952 12.329458,25.27938 13.031036,34.0172 0.701578,8.73783 -4.060233,13.57333 -9.064701,14.75383 -5.004468,1.1805 -10.250459,-1.29399 -15.4961536,-3.76834"
       id="path244-1"
       inkscape:connector-curvature="0"
       inkscape:original-d="m 17.704356,246.15235 c 6.164834,12.63943 12.329654,25.27928 18.494415,37.91953 -4.761981,4.83532 -9.523818,9.6708 -14.285767,14.50686 -5.246589,-2.47527 -10.492593,-4.94973 -15.7384666,-7.4237"
       sodipodi:nodetypes="cccc"
       inkscape:path-effect="#path-effect246-9"
       inkscape:export-xdpi="96"
       inkscape:export-ydpi="96" />
    <path
       style="fill:none;stroke:#000000;stroke-width:0.55447114px;stroke-linecap:butt;stroke-linejoin:miter;stroke-opacity:1"
       d="m 65.123167,234.66994 c -4.437112,-2.86129 -8.874359,-5.72267 -14.019549,-4.24607 -5.14519,1.4766 -10.998397,7.29149 -13.97258,15.46079 -2.974184,8.16931 -3.068581,18.69081 -0.653477,27.17728 2.415105,8.48646 7.497785,15.14341 12.879532,17.77402 5.381747,2.63061 11.140637,1.33836 14.350528,0.36896 3.209891,-0.9694 3.870709,-1.61548 4.531047,-2.26108"
       id="path270"
       inkscape:connector-curvature="0"
       inkscape:path-effect="#path-effect272"
       inkscape:original-d="m 65.123167,234.66994 c -4.436686,-2.86195 -8.873931,-5.72333 -13.311754,-8.58414 -5.852993,5.81466 -11.706189,11.62956 -17.560148,17.44519 -0.09387,10.52298 -0.188217,21.04449 -0.283219,31.56747 4.910103,6.46102 10.007953,13.10639 15.011101,19.66053 5.759607,-1.29281 11.5185,-2.58504 17.276921,-3.87679 0.66136,-0.64677 1.322289,-1.29273 1.9826,-1.93836"
       inkscape:export-xdpi="96"
       inkscape:export-ydpi="96" />
    <path
       style="fill:none;stroke:#000000;stroke-width:0.55447125px;stroke-linecap:butt;stroke-linejoin:miter;stroke-opacity:1"
       d="m 65.123167,234.66994 c -2.633693,-1.74626 -5.267519,-3.49261 -9.075852,-1.87698 -3.808334,1.61563 -8.790578,6.5929 -11.329417,14.34349 -2.53884,7.75059 -2.633238,18.2721 -0.889831,26.36351 1.743406,8.0914 5.444961,13.94132 9.120547,16.54296 3.675586,2.60164 7.384279,2.04938 9.938105,1.3405 2.553826,-0.70888 3.953688,-1.57472 5.351949,-2.43958"
       id="path270-7"
       inkscape:connector-curvature="0"
       inkscape:path-effect="#path-effect272-2"
       inkscape:original-d="m 65.123167,234.66994 c -2.633469,-1.7466 -5.267294,-3.49295 -7.901494,-5.23906 -4.982735,4.97767 -9.964975,9.95494 -14.948205,14.93327 -0.09386,10.52289 -0.188218,21.04441 -0.28322,31.56747 3.581547,5.65954 7.283089,11.50946 10.924681,17.26529 3.709247,-0.55251 7.417926,-1.10487 11.126223,-1.65681 1.399329,-0.86566 2.799202,-1.73149 4.197516,-2.59626"
       sodipodi:nodetypes="ccccccc"
       inkscape:export-xdpi="96"
       inkscape:export-ydpi="96" />
    <path
       style="fill:none;stroke:#000000;stroke-width:0.27781078px;stroke-linecap:butt;stroke-linejoin:miter;stroke-opacity:1"
       d="m 23.350374,241.37666 c 3.09805,-2.87791 6.195855,-5.75559 9.293337,-8.63297"
       id="path4858"
       inkscape:connector-curvature="0"
       inkscape:path-effect="#path-effect4860"
       inkscape:original-d="m 23.350374,241.37666 c 3.098012,-2.87795 6.195789,-5.75566 9.293337,-8.63297"
       inkscape:export-xdpi="96"
       inkscape:export-ydpi="96" />
    <path
       style="fill:none;fill-opacity:1;fill-rule:nonzero;stroke:none;stroke-width:0.07106378;stroke-miterlimit:4;stroke-dasharray:none"
       d="m 19.330244,296.50688 c -1.839821,-0.35101 -6.143455,-1.77975 -5.81617,-1.93104 0.06821,-0.0325 0.704557,0.10482 1.414968,0.30307 1.782057,0.49727 5.136386,0.62646 6.669814,0.25676 2.983457,-0.71827 5.214906,-2.27514 6.969672,-4.86181 1.535345,-2.2632 2.230969,-4.58791 2.333758,-7.7994 0.07633,-2.39304 -0.144857,-4.26282 -0.851176,-7.18758 -1.414676,-5.85771 -4.076857,-12.42208 -10.111368,-24.93241 -2.060778,-4.27224 -2.150802,-4.4306 -2.335455,-4.10941 -0.231253,0.40219 -4.058976,3.95479 -5.971128,5.54172 -1.569432,1.30248 -3.4200926,2.56831 -4.4867526,3.06882 -2.27959,1.06969 -3.8352499,0.69064 -5.2807809,-1.28671 -0.639517,-0.87484 -1.86873603,-3.10392 -1.77519603,-3.21921 0.244975,-0.30145 4.51061693,-4.32019 7.55100193,-7.11315 13.8545306,-12.72719 19.4201386,-16.14978 22.5001816,-13.83661 0.59567,0.4477 1.650045,1.91382 2.018555,2.80759 l 0.210872,0.51189 -4.589891,4.25412 c -2.524436,2.33982 -4.589882,4.31141 -4.589882,4.38145 0,0.0731 1.112837,2.45422 2.472964,5.2983 4.305056,9.00193 6.316546,13.67199 8.195001,19.02619 1.555692,4.43426 2.350095,7.53834 2.754876,10.76446 0.257317,2.05072 0.165726,5.64166 -0.186756,7.32326 -1.273236,6.07393 -5.402505,10.81468 -10.829233,12.43281 -1.332357,0.39733 -4.883137,0.57121 -6.267891,0.30714 z"
       id="path6513"
       inkscape:connector-curvature="0"
       inkscape:export-xdpi="96"
       inkscape:export-ydpi="96" />
    <path
       style="fill:#000000;fill-opacity:0;fill-rule:nonzero;stroke:none;stroke-width:0.07106378;stroke-miterlimit:4;stroke-dasharray:none"
       d="m 19.330244,296.50688 c -1.839821,-0.35101 -6.143455,-1.77975 -5.81617,-1.93104 0.06821,-0.0325 0.704557,0.10482 1.414968,0.30307 1.782057,0.49727 5.136386,0.62646 6.669814,0.25676 2.983457,-0.71827 5.214906,-2.27514 6.969672,-4.86181 1.535345,-2.2632 2.230969,-4.58791 2.333758,-7.7994 0.07633,-2.39304 -0.144857,-4.26282 -0.851176,-7.18758 -1.414676,-5.85771 -4.076857,-12.42208 -10.111368,-24.93241 -2.060778,-4.27224 -2.150802,-4.4306 -2.335455,-4.10941 -0.231253,0.40219 -4.058976,3.95479 -5.971128,5.54172 -1.569432,1.30248 -3.4200926,2.56831 -4.4867526,3.06882 -2.27959,1.06969 -3.8352499,0.69064 -5.2807809,-1.28671 -0.639517,-0.87484 -1.86873603,-3.10392 -1.77519603,-3.21921 0.244975,-0.30145 4.51061693,-4.32019 7.55100193,-7.11315 13.8545306,-12.72719 19.4201386,-16.14978 22.5001816,-13.83661 0.59567,0.4477 1.650045,1.91382 2.018555,2.80759 l 0.210872,0.51189 -4.589891,4.25412 c -2.524436,2.33982 -4.589882,4.31141 -4.589882,4.38145 0,0.0731 1.112837,2.45422 2.472964,5.2983 4.305056,9.00193 6.316546,13.67199 8.195001,19.02619 1.555692,4.43426 2.350095,7.53834 2.754876,10.76446 0.257317,2.05072 0.165726,5.64166 -0.186756,7.32326 -1.273236,6.07393 -5.402505,10.81468 -10.829233,12.43281 -1.332357,0.39733 -4.883137,0.57121 -6.267891,0.30714 z"
       id="path6559"
       inkscape:connector-curvature="0"
       inkscape:export-xdpi="96"
       inkscape:export-ydpi="96" />
    <path
       style="opacity:1;fill:#008000;fill-opacity:0;fill-rule:nonzero;stroke:none;stroke-width:0.07106378;stroke-miterlimit:4;stroke-dasharray:none"
       d="m 19.330244,296.50688 c -1.839821,-0.35101 -6.143455,-1.77975 -5.81617,-1.93104 0.06821,-0.0325 0.704557,0.10482 1.414968,0.30307 1.782057,0.49727 5.136386,0.62646 6.669814,0.25676 2.983457,-0.71827 5.214906,-2.27514 6.969672,-4.86181 1.535345,-2.2632 2.230969,-4.58791 2.333758,-7.7994 0.07633,-2.39304 -0.144857,-4.26282 -0.851176,-7.18758 -1.414676,-5.85771 -4.076857,-12.42208 -10.111368,-24.93241 -2.060778,-4.27224 -2.150802,-4.4306 -2.335455,-4.10941 -0.231253,0.40219 -4.058976,3.95479 -5.971128,5.54172 -1.569432,1.30248 -3.4200926,2.56831 -4.4867526,3.06882 -2.27959,1.06969 -3.8352499,0.69064 -5.2807809,-1.28671 -0.639517,-0.87484 -1.86873603,-3.10392 -1.77519603,-3.21921 0.244975,-0.30145 4.51061693,-4.32019 7.55100193,-7.11315 13.8545306,-12.72719 19.4201386,-16.14978 22.5001816,-13.83661 0.59567,0.4477 1.650045,1.91382 2.018555,2.80759 l 0.210872,0.51189 -4.589891,4.25412 c -2.524436,2.33982 -4.589882,4.31141 -4.589882,4.38145 0,0.0731 1.112837,2.45422 2.472964,5.2983 4.305056,9.00193 6.316546,13.67199 8.195001,19.02619 1.555692,4.43426 2.350095,7.53834 2.754876,10.76446 0.257317,2.05072 0.165726,5.64166 -0.186756,7.32326 -1.273236,6.07393 -5.402505,10.81468 -10.829233,12.43281 -1.332357,0.39733 -4.883137,0.57121 -6.267891,0.30714 z"
       id="path6569"
       inkscape:connector-curvature="0"
       inkscape:export-xdpi="96"
       inkscape:export-ydpi="96" />
    <path
       style="opacity:1;fill:#008000;fill-opacity:0;fill-rule:nonzero;stroke:none;stroke-width:0.07106378;stroke-miterlimit:4;stroke-dasharray:none"
       d="m 19.330244,296.50688 c -1.839821,-0.35101 -6.143455,-1.77975 -5.81617,-1.93104 0.06821,-0.0325 0.704557,0.10482 1.414968,0.30307 1.782057,0.49727 5.136386,0.62646 6.669814,0.25676 2.983457,-0.71827 5.214906,-2.27514 6.969672,-4.86181 1.535345,-2.2632 2.230969,-4.58791 2.333758,-7.7994 0.07633,-2.39304 -0.144857,-4.26282 -0.851176,-7.18758 -1.414676,-5.85771 -4.076857,-12.42208 -10.111368,-24.93241 -2.060778,-4.27224 -2.150802,-4.4306 -2.335455,-4.10941 -0.231253,0.40219 -4.058976,3.95479 -5.971128,5.54172 -1.569432,1.30248 -3.4200926,2.56831 -4.4867526,3.06882 -2.27959,1.06969 -3.8352499,0.69064 -5.2807809,-1.28671 -0.639517,-0.87484 -1.86873603,-3.10392 -1.77519603,-3.21921 0.244975,-0.30145 4.51061693,-4.32019 7.55100193,-7.11315 13.8545306,-12.72719 19.4201386,-16.14978 22.5001816,-13.83661 0.59567,0.4477 1.650045,1.91382 2.018555,2.80759 l 0.210872,0.51189 -4.589891,4.25412 c -2.524436,2.33982 -4.589882,4.31141 -4.589882,4.38145 0,0.0731 1.112837,2.45422 2.472964,5.2983 4.305056,9.00193 6.316546,13.67199 8.195001,19.02619 1.555692,4.43426 2.350095,7.53834 2.754876,10.76446 0.257317,2.05072 0.165726,5.64166 -0.186756,7.32326 -1.273236,6.07393 -5.402505,10.81468 -10.829233,12.43281 -1.332357,0.39733 -4.883137,0.57121 -6.267891,0.30714 z"
       id="path6571"
       inkscape:connector-curvature="0"
       inkscape:export-xdpi="96"
       inkscape:export-ydpi="96" />
    <path
       style="opacity:1;fill:#32e81e;fill-opacity:0;fill-rule:nonzero;stroke:none;stroke-width:0.07106378;stroke-miterlimit:4;stroke-dasharray:none"
       d="m 19.330244,296.50688 c -1.839821,-0.35101 -6.143455,-1.77975 -5.81617,-1.93104 0.06821,-0.0325 0.704557,0.10482 1.414968,0.30307 1.782057,0.49727 5.136386,0.62646 6.669814,0.25676 2.983457,-0.71827 5.214906,-2.27514 6.969672,-4.86181 1.535345,-2.2632 2.230969,-4.58791 2.333758,-7.7994 0.07633,-2.39304 -0.144857,-4.26282 -0.851176,-7.18758 -1.414676,-5.85771 -4.076857,-12.42208 -10.111368,-24.93241 -2.060778,-4.27224 -2.150802,-4.4306 -2.335455,-4.10941 -0.231253,0.40219 -4.058976,3.95479 -5.971128,5.54172 -1.569432,1.30248 -3.4200926,2.56831 -4.4867526,3.06882 -2.27959,1.06969 -3.8352499,0.69064 -5.2807809,-1.28671 -0.639517,-0.87484 -1.86873603,-3.10392 -1.77519603,-3.21921 0.244975,-0.30145 4.51061693,-4.32019 7.55100193,-7.11315 13.8545306,-12.72719 19.4201386,-16.14978 22.5001816,-13.83661 0.59567,0.4477 1.650045,1.91382 2.018555,2.80759 l 0.210872,0.51189 -4.589891,4.25412 c -2.524436,2.33982 -4.589882,4.31141 -4.589882,4.38145 0,0.0731 1.112837,2.45422 2.472964,5.2983 4.305056,9.00193 6.316546,13.67199 8.195001,19.02619 1.555692,4.43426 2.350095,7.53834 2.754876,10.76446 0.257317,2.05072 0.165726,5.64166 -0.186756,7.32326 -1.273236,6.07393 -5.402505,10.81468 -10.829233,12.43281 -1.332357,0.39733 -4.883137,0.57121 -6.267891,0.30714 z"
       id="path6573"
       inkscape:connector-curvature="0"
       inkscape:export-xdpi="96"
       inkscape:export-ydpi="96" />
    <path
       style="opacity:1;fill:#32e81e;fill-opacity:0;fill-rule:nonzero;stroke:none;stroke-width:0.07106378;stroke-miterlimit:4;stroke-dasharray:none"
       d="m 19.330244,296.50688 c -1.839821,-0.35101 -6.143455,-1.77975 -5.81617,-1.93104 0.06821,-0.0325 0.704557,0.10482 1.414968,0.30307 1.782057,0.49727 5.136386,0.62646 6.669814,0.25676 2.983457,-0.71827 5.214906,-2.27514 6.969672,-4.86181 1.535345,-2.2632 2.230969,-4.58791 2.333758,-7.7994 0.07633,-2.39304 -0.144857,-4.26282 -0.851176,-7.18758 -1.414676,-5.85771 -4.076857,-12.42208 -10.111368,-24.93241 -2.060778,-4.27224 -2.150802,-4.4306 -2.335455,-4.10941 -0.231253,0.40219 -4.058976,3.95479 -5.971128,5.54172 -1.569432,1.30248 -3.4200926,2.56831 -4.4867526,3.06882 -2.27959,1.06969 -3.8352499,0.69064 -5.2807809,-1.28671 -0.639517,-0.87484 -1.86873603,-3.10392 -1.77519603,-3.21921 0.244975,-0.30145 4.51061693,-4.32019 7.55100193,-7.11315 13.8545306,-12.72719 19.4201386,-16.14978 22.5001816,-13.83661 0.59567,0.4477 1.650045,1.91382 2.018555,2.80759 l 0.210872,0.51189 -4.589891,4.25412 c -2.524436,2.33982 -4.589882,4.31141 -4.589882,4.38145 0,0.0731 1.112837,2.45422 2.472964,5.2983 4.305056,9.00193 6.316546,13.67199 8.195001,19.02619 1.555692,4.43426 2.350095,7.53834 2.754876,10.76446 0.257317,2.05072 0.165726,5.64166 -0.186756,7.32326 -1.273236,6.07393 -5.402505,10.81468 -10.829233,12.43281 -1.332357,0.39733 -4.883137,0.57121 -6.267891,0.30714 z"
       id="path6581"
       inkscape:connector-curvature="0"
       inkscape:export-xdpi="96"
       inkscape:export-ydpi="96" />
    <path
       style="opacity:1;fill:#32e81e;fill-opacity:0;fill-rule:nonzero;stroke:none;stroke-width:0.07106378;stroke-miterlimit:4;stroke-dasharray:none"
       d="m 19.330244,296.50688 c -1.839821,-0.35101 -6.143455,-1.77975 -5.81617,-1.93104 0.06821,-0.0325 0.704557,0.10482 1.414968,0.30307 1.782057,0.49727 5.136386,0.62646 6.669814,0.25676 2.983457,-0.71827 5.214906,-2.27514 6.969672,-4.86181 1.535345,-2.2632 2.230969,-4.58791 2.333758,-7.7994 0.07633,-2.39304 -0.144857,-4.26282 -0.851176,-7.18758 -1.414676,-5.85771 -4.076857,-12.42208 -10.111368,-24.93241 -2.060778,-4.27224 -2.150802,-4.4306 -2.335455,-4.10941 -0.231253,0.40219 -4.058976,3.95479 -5.971128,5.54172 -1.569432,1.30248 -3.4200926,2.56831 -4.4867526,3.06882 -2.27959,1.06969 -3.8352499,0.69064 -5.2807809,-1.28671 -0.639517,-0.87484 -1.86873603,-3.10392 -1.77519603,-3.21921 0.244975,-0.30145 4.51061693,-4.32019 7.55100193,-7.11315 13.8545306,-12.72719 19.4201386,-16.14978 22.5001816,-13.83661 0.59567,0.4477 1.650045,1.91382 2.018555,2.80759 l 0.210872,0.51189 -4.589891,4.25412 c -2.524436,2.33982 -4.589882,4.31141 -4.589882,4.38145 0,0.0731 1.112837,2.45422 2.472964,5.2983 4.305056,9.00193 6.316546,13.67199 8.195001,19.02619 1.555692,4.43426 2.350095,7.53834 2.754876,10.76446 0.257317,2.05072 0.165726,5.64166 -0.186756,7.32326 -1.273236,6.07393 -5.402505,10.81468 -10.829233,12.43281 -1.332357,0.39733 -4.883137,0.57121 -6.267891,0.30714 z"
       id="path6583"
       inkscape:connector-curvature="0"
       inkscape:export-xdpi="96"
       inkscape:export-ydpi="96" />
    <path
       style="opacity:1;fill:url(#linearGradient6591);fill-opacity:1;fill-rule:nonzero;stroke:none;stroke-width:0.07106378;stroke-miterlimit:4;stroke-dasharray:none"
       d="m 19.330244,296.50688 c -1.839821,-0.35101 -6.143455,-1.77975 -5.81617,-1.93104 0.06821,-0.0325 0.704557,0.10482 1.414968,0.30307 1.782057,0.49727 5.136386,0.62646 6.669814,0.25676 2.983457,-0.71827 5.214906,-2.27514 6.969672,-4.86181 1.535345,-2.2632 2.230969,-4.58791 2.333758,-7.7994 0.07633,-2.39304 -0.144857,-4.26282 -0.851176,-7.18758 -1.414676,-5.85771 -4.076857,-12.42208 -10.111368,-24.93241 -2.060778,-4.27224 -2.150802,-4.4306 -2.335455,-4.10941 -0.231253,0.40219 -4.058976,3.95479 -5.971128,5.54172 -1.569432,1.30248 -3.4200926,2.56831 -4.4867526,3.06882 -2.27959,1.06969 -3.8352499,0.69064 -5.2807809,-1.28671 -0.639517,-0.87484 -1.86873603,-3.10392 -1.77519603,-3.21921 0.244975,-0.30145 4.51061693,-4.32019 7.55100193,-7.11315 13.8545306,-12.72719 19.4201386,-16.14978 22.5001816,-13.83661 0.59567,0.4477 1.650045,1.91382 2.018555,2.80759 l 0.210872,0.51189 -4.589891,4.25412 c -2.524436,2.33982 -4.589882,4.31141 -4.589882,4.38145 0,0.0731 1.112837,2.45422 2.472964,5.2983 4.305056,9.00193 6.316546,13.67199 8.195001,19.02619 1.555692,4.43426 2.350095,7.53834 2.754876,10.76446 0.257317,2.05072 0.165726,5.64166 -0.186756,7.32326 -1.273236,6.07393 -5.402505,10.81468 -10.829233,12.43281 -1.332357,0.39733 -4.883137,0.57121 -6.267891,0.30714 z"
       id="path6585"
       inkscape:connector-curvature="0"
       inkscape:export-xdpi="96"
       inkscape:export-ydpi="96" />
    <path
       style="opacity:1;fill:url(#linearGradient6599);fill-opacity:1;fill-rule:nonzero;stroke:none;stroke-width:0.07106378;stroke-miterlimit:4;stroke-dasharray:none"
       d="m 52.93963,291.63354 c -4.160685,-0.89743 -7.897669,-3.61435 -11.098031,-8.06868 -3.729238,-5.19039 -5.948515,-11.65498 -6.612472,-19.26165 -0.158256,-1.81331 -0.156875,-6.15096 0.0026,-7.93981 0.811007,-9.09822 4.058367,-16.52833 9.396912,-21.50073 3.740631,-3.48401 7.430845,-4.9052 11.092291,-4.27167 1.224485,0.21207 3.626051,1.06131 3.157635,1.11681 -2.62396,0.3112 -4.679939,1.32457 -7.031154,3.46565 -4.434762,4.03848 -7.444007,9.95551 -8.678,17.06346 -0.606876,3.49564 -0.730216,5.08209 -0.732165,9.41827 -0.0019,4.25332 0.09549,5.71773 0.60647,9.11659 1.486113,9.88474 6.025482,18.00078 11.545254,20.64197 l 0.953251,0.45582 -0.77455,-0.005 c -0.425966,-0.003 -1.248601,-0.10644 -1.828047,-0.23156 z"
       id="path6593"
       inkscape:connector-curvature="0"
       inkscape:export-xdpi="96"
       inkscape:export-ydpi="96" />
  </g>
</svg>
