<?xml version="1.0" standalone="no"?>
<!DOCTYPE svg PUBLIC "-//W3C//DTD SVG 20010904//EN"
 "http://www.w3.org/TR/2001/REC-SVG-20010904/DTD/svg10.dtd">
<svg version="1.0" xmlns="http://www.w3.org/2000/svg"
 width="700.000000pt" height="700.000000pt" viewBox="0 0 700.000000 700.000000"
 preserveAspectRatio="xMidYMid meet">
<metadata>
Created by potrace 1.11, written by Peter Selinger 2001-2013
</metadata>
<g transform="translate(0.000000,700.000000) scale(0.100000,-0.100000)"
fill="#000000" stroke="none">
<path d="M2770 6984 c-108 -21 -275 -94 -435 -191 -174 -106 -559 -393 -755
-563 -36 -31 -78 -66 -95 -79 -16 -13 -59 -49 -95 -80 -36 -32 -123 -109 -195
-172 -71 -62 -132 -116 -135 -119 -3 -3 -49 -45 -103 -93 -53 -48 -105 -95
-115 -105 -10 -9 -69 -64 -132 -122 -63 -58 -146 -135 -184 -171 -39 -37 -87
-82 -107 -100 -20 -19 -122 -117 -228 -218 l-191 -184 0 -54 c0 -40 8 -69 31
-116 99 -197 223 -349 324 -397 68 -32 181 -38 261 -15 232 67 571 321 1076
804 132 126 117 124 166 21 23 -48 91 -188 151 -311 323 -667 559 -1192 731
-1624 4 -11 15 -39 24 -62 9 -24 23 -60 30 -80 66 -169 153 -433 192 -578 38
-143 81 -326 90 -380 4 -27 8 -52 9 -55 27 -102 44 -416 29 -555 -2 -27 -6
-68 -9 -90 -8 -83 -46 -238 -82 -330 -112 -287 -320 -523 -573 -650 -56 -28
-240 -97 -240 -90 0 2 -14 -1 -32 -6 -78 -22 -322 -32 -413 -16 -22 4 -58 10
-80 13 -65 9 -263 61 -355 93 -104 35 -316 120 -387 155 -29 14 -55 26 -58 26
-5 0 -160 72 -217 101 -30 15 -37 16 -41 4 -10 -25 565 -324 814 -423 136 -54
265 -101 300 -107 12 -3 45 -11 73 -19 28 -8 67 -17 86 -20 19 -4 53 -10 75
-14 50 -9 458 -9 503 0 84 17 142 33 207 56 79 28 227 97 265 122 14 10 57 38
95 64 157 104 302 253 426 436 56 84 159 274 159 295 0 4 6 21 14 38 53 121
107 346 123 507 14 149 9 449 -11 590 -13 90 -15 123 -7 100 198 -560 518
-1053 891 -1371 263 -225 558 -355 900 -397 78 -10 372 -8 450 3 121 16 296
52 440 89 8 2 71 23 140 46 154 51 290 117 350 169 l45 39 -21 22 -22 22 -53
-34 c-181 -116 -492 -229 -699 -256 -86 -11 -309 -7 -370 7 -226 52 -397 150
-581 334 -122 123 -253 300 -349 472 -18 33 -42 76 -53 95 -87 154 -258 608
-292 775 -2 11 -15 71 -30 133 -14 62 -36 179 -50 260 -23 144 -27 175 -41
297 -3 33 -8 67 -9 76 -11 55 -20 348 -20 609 0 325 6 440 31 638 3 26 7 58 9
72 1 14 5 45 9 70 4 25 10 59 12 75 11 73 31 180 38 203 3 9 8 33 11 52 12 72
80 316 101 367 8 17 14 35 14 40 0 5 20 59 43 119 242 608 687 1116 1122 1282
101 39 267 50 371 26 126 -29 213 -70 397 -187 74 -47 79 -49 92 -31 8 11 15
22 15 27 1 25 -458 288 -645 369 -63 27 -216 76 -263 84 -15 3 -33 7 -40 9
-17 6 -155 18 -207 18 -561 0 -1194 -514 -1581 -1283 -163 -324 -306 -791
-340 -1107 -3 -32 -7 -60 -9 -63 -2 -3 -6 -41 -10 -85 -4 -44 -9 -82 -10 -85
-10 -17 -20 -268 -20 -495 0 -261 8 -408 30 -575 2 -19 7 -60 10 -90 4 -30 10
-72 15 -92 11 -54 -5 -38 -20 19 -69 253 -374 1012 -621 1541 -22 46 -39 85
-39 87 0 2 -30 65 -66 141 -36 77 -86 182 -111 234 -64 138 -167 352 -250 519
l-71 146 38 35 c21 19 88 82 150 140 62 58 127 118 144 134 17 15 85 78 150
140 65 61 127 118 136 126 24 21 246 228 284 265 17 17 32 36 34 44 2 8 -16
50 -39 95 -130 253 -239 346 -413 352 -45 1 -92 0 -106 -2z m244 -59 c70 -35
143 -111 199 -207 38 -65 28 -60 -17 8 -104 155 -210 225 -337 219 -183 -9
-354 -81 -632 -266 -48 -32 -85 -54 -82 -49 12 19 231 159 335 213 168 89 268
117 396 113 66 -2 92 -8 138 -31z m2624 -149 c29 -4 64 -11 78 -16 13 -5 24
-8 24 -5 0 4 92 -21 125 -34 11 -5 58 -23 105 -42 47 -18 87 -36 90 -39 3 -4
12 -9 20 -12 8 -4 -14 -5 -50 -3 -36 2 -91 -1 -124 -6 -32 -5 -61 -8 -63 -5
-3 2 29 10 71 17 42 6 76 15 76 18 0 14 -154 70 -265 97 -77 19 -334 28 -388
14 -18 -5 -45 -11 -62 -14 -51 -8 -176 -51 -259 -90 -219 -102 -504 -336 -700
-573 -37 -46 -70 -83 -73 -83 -11 0 132 165 237 274 276 284 607 474 873 502
34 3 63 7 65 9 5 4 167 -2 220 -9z m-2380 -141 c-3 -3 -9 2 -12 12 -6 14 -5
15 5 6 7 -7 10 -15 7 -18z m-1133 -23 c-33 -29 -306 -232 -301 -223 8 12 296
231 304 231 3 0 2 -4 -3 -8z m1149 -8 c3 -8 2 -12 -4 -9 -6 3 -10 10 -10 16 0
14 7 11 14 -7z m2553 0 c-3 -3 -12 -4 -19 -1 -8 3 -5 6 6 6 11 1 17 -2 13 -5z
m-96 -29 c-18 -8 -36 -15 -40 -15 -13 1 45 29 59 29 8 0 0 -6 -19 -14z m-2437
-45 c-5 -5 -9 4 -10 23 -1 30 -1 30 9 9 6 -14 7 -26 1 -32z m2366 16 c0 -2
-21 -14 -47 -26 -59 -27 -162 -94 -240 -155 -55 -44 -56 -44 -15 -6 81 75 302
212 302 187z m-2459 -101 c-32 -30 -60 -55 -64 -55 -8 0 106 110 115 110 3 0
-19 -25 -51 -55z m-1392 -78 c-29 -22 -95 -73 -99 -77 -3 -3 -25 -21 -50 -41
-25 -20 -57 -48 -72 -62 -15 -14 -67 -58 -115 -98 -49 -40 -90 -76 -93 -79 -3
-3 -61 -54 -130 -114 -69 -60 -129 -114 -135 -120 -5 -6 -48 -45 -94 -86 -157
-139 -195 -173 -292 -264 -36 -33 -116 -108 -178 -166 -63 -58 -159 -148 -215
-202 -56 -53 -103 -94 -106 -92 -2 3 1 8 7 12 6 4 60 54 120 112 93 89 206
196 363 340 19 18 67 62 105 99 39 36 109 100 155 141 47 41 110 98 140 126
30 27 86 77 124 110 38 32 81 70 95 83 14 13 48 42 75 65 27 22 95 80 150 127
140 118 240 197 245 193 2 -2 2 -5 0 -7z m1246 -57 c-41 -38 -76 -70 -79 -70
-8 0 138 139 146 140 4 0 -26 -31 -67 -70z m2255 7 c0 -2 -17 -19 -37 -38
l-38 -34 34 38 c33 34 41 42 41 34z m-2341 -89 c-2 -2 -31 -28 -64 -58 l-60
-55 55 58 c30 31 59 57 64 57 5 0 7 -1 5 -2z m2212 -41 c-10 -9 -11 -8 -5 6 3
10 9 15 12 12 3 -3 0 -11 -7 -18z m-51 -50 c0 -2 -12 -14 -27 -28 l-28 -24 24
28 c23 25 31 32 31 24z m-2310 -40 c0 -1 -26 -27 -57 -57 l-58 -55 55 58 c50
53 60 62 60 54z m2250 -31 c0 -2 -8 -10 -17 -17 -16 -13 -17 -12 -4 4 13 16
21 21 21 13z m-50 -60 c0 -2 -8 -10 -17 -17 -16 -13 -17 -12 -4 4 13 16 21 21
21 13z m-2329 -39 c-10 -9 -11 -8 -5 6 3 10 9 15 12 12 3 -3 0 -11 -7 -18z
m1529 -7 c-12 -16 -24 -30 -26 -30 -3 0 4 14 16 30 12 17 24 30 26 30 3 0 -4
-13 -16 -30z m-1550 -3 c0 -1 -24 -25 -52 -52 l-53 -50 50 53 c46 48 55 57 55
49z m2290 -31 c0 -2 -8 -10 -17 -17 -16 -13 -17 -12 -4 4 13 16 21 21 21 13z
m-2419 -99 c-10 -9 -11 -8 -5 6 3 10 9 15 12 12 3 -3 0 -11 -7 -18z m1573 -22
c-9 -14 -18 -25 -21 -25 -5 0 5 18 20 38 17 22 18 13 1 -13z m-1604 1 c0 -2
-8 -10 -17 -17 -16 -13 -17 -12 -4 4 13 16 21 21 21 13z m1570 -56 c-6 -11
-13 -20 -16 -20 -2 0 0 9 6 20 6 11 13 20 16 20 2 0 0 -9 -6 -20z m-40 -70
c-6 -11 -13 -20 -16 -20 -2 0 0 9 6 20 6 11 13 20 16 20 2 0 0 -9 -6 -20z
m-27 -45 c-3 -9 -8 -14 -10 -11 -3 3 -2 9 2 15 9 16 15 13 8 -4z m-20 -40 c-3
-9 -8 -14 -10 -11 -3 3 -2 9 2 15 9 16 15 13 8 -4z m-42 -78 c-10 -9 -11 -8
-5 6 3 10 9 15 12 12 3 -3 0 -11 -7 -18z m-25 -54 c-8 -15 -15 -25 -16 -21 0
12 23 58 27 54 3 -2 -2 -17 -11 -33z m-25 -56 c-10 -9 -11 -8 -5 6 3 10 9 15
12 12 3 -3 0 -11 -7 -18z m-30 -68 c-11 -24 -20 -41 -20 -37 -1 12 31 89 35
85 3 -2 -4 -24 -15 -48z m-1323 -74 c-3 -3 -9 2 -12 12 -6 14 -5 15 5 6 7 -7
10 -15 7 -18z m1285 -20 c-3 -9 -8 -14 -10 -11 -3 3 -2 9 2 15 9 16 15 13 8
-4z m-1243 -60 c0 -5 -5 -3 -10 5 -5 8 -10 20 -10 25 0 6 5 3 10 -5 5 -8 10
-19 10 -25z m1220 -2 c-11 -17 -11 -17 -6 0 3 10 6 24 7 30 0 9 2 9 5 0 3 -7
0 -20 -6 -30z m-1196 -45 c9 -17 16 -34 16 -37 0 -8 -26 32 -33 52 -10 28 0
19 17 -15z m-824 2 c-8 -5 -17 -7 -19 -4 -3 3 1 9 9 14 8 5 17 7 19 4 3 -3 -1
-9 -9 -14z m2001 -11 c-5 -13 -10 -19 -10 -12 -1 15 10 45 15 40 3 -2 0 -15
-5 -28z m-20 -60 c-5 -13 -10 -19 -10 -12 -1 15 10 45 15 40 3 -2 0 -15 -5
-28z m-1127 5 c3 -8 2 -12 -4 -9 -6 3 -10 10 -10 16 0 14 7 11 14 -7z m35 -79
c0 -5 -6 1 -14 15 -8 14 -14 30 -14 35 0 6 6 -1 14 -15 8 -14 14 -29 14 -35z
m1068 -7 c-3 -8 -6 -5 -6 6 -1 11 2 17 5 13 3 -3 4 -12 1 -19z m-1008 -123 c0
-5 -11 10 -24 35 -13 25 -24 50 -24 55 0 6 11 -10 24 -35 13 -25 24 -49 24
-55z m-2539 72 c0 -1 -39 -41 -87 -87 l-88 -85 85 88 c79 81 90 92 90 84z
m1744 -13 c3 -8 2 -12 -4 -9 -6 3 -10 10 -10 16 0 14 7 11 14 -7z m1783 -6
c-3 -8 -6 -5 -6 6 -1 11 2 17 5 13 3 -3 4 -12 1 -19z m-1763 -34 c3 -8 2 -12
-4 -9 -6 3 -10 10 -10 16 0 14 7 11 14 -7z m1748 -16 c-8 -8 -9 -4 -5 13 4 13
8 18 11 10 2 -7 -1 -18 -6 -23z m-1728 -24 c3 -8 2 -12 -4 -9 -6 3 -10 10 -10
16 0 14 7 11 14 -7z m786 -35 c12 -23 20 -43 18 -45 -3 -2 -14 17 -26 41 -27
56 -20 60 8 4z m-760 -24 c0 -5 -5 -3 -10 5 -5 8 -10 20 -10 25 0 6 5 3 10 -5
5 -8 10 -19 10 -25z m856 -192 c-4 -4 -76 144 -75 155 0 4 18 -29 40 -72 21
-44 37 -81 35 -83z m-736 -57 c0 -12 -5 -7 -19 24 -11 24 -11 24 3 6 9 -11 16
-24 16 -30z m760 9 c0 -5 -5 -3 -10 5 -5 8 -10 20 -10 25 0 6 5 3 10 -5 5 -8
10 -19 10 -25z m747 -27 c-3 -8 -6 -5 -6 6 -1 11 2 17 5 13 3 -3 4 -12 1 -19z
m-718 -38 c11 -24 11 -24 -3 -6 -9 11 -16 24 -16 30 0 12 5 7 19 -24z m39 -85
c-3 -3 -9 2 -12 12 -6 14 -5 15 5 6 7 -7 10 -15 7 -18z m42 -89 c0 -12 -5 -7
-19 24 -11 24 -11 24 3 6 9 -11 16 -24 16 -30z m29 -71 c0 -5 -6 1 -14 15 -8
14 -14 30 -14 35 0 6 6 -1 14 -15 8 -14 14 -29 14 -35z m25 -51 c3 -8 2 -12
-4 -9 -6 3 -10 10 -10 16 0 14 7 11 14 -7z m20 -40 c3 -8 2 -12 -4 -9 -6 3
-10 10 -10 16 0 14 7 11 14 -7z m27 -60 c5 -15 8 -29 5 -31 -2 -2 -8 10 -14
26 -13 38 -5 41 9 5z m67 -169 c-3 -3 -9 2 -12 12 -6 14 -5 15 5 6 7 -7 10
-15 7 -18z m22 -50 c0 -5 -5 -3 -10 5 -5 8 -10 20 -10 25 0 6 5 3 10 -5 5 -8
10 -19 10 -25z m39 -90 c0 -5 -6 1 -14 15 -8 14 -14 30 -14 35 0 6 6 -1 14
-15 8 -14 14 -29 14 -35z m35 -91 c3 -8 2 -12 -4 -9 -6 3 -10 10 -10 16 0 14
7 11 14 -7z m26 -59 c0 -5 -5 -3 -10 5 -5 8 -10 20 -10 25 0 6 5 3 10 -5 5 -8
10 -19 10 -25z m44 -115 c3 -14 -2 -7 -13 15 -10 22 -21 51 -25 65 -3 14 2 7
13 -15 10 -22 21 -51 25 -65z m-744 25 c0 -5 -5 -3 -10 5 -5 8 -10 20 -10 25
0 6 5 3 10 -5 5 -8 10 -19 10 -25z m828 -250 c71 -197 103 -298 97 -303 -2 -2
-13 27 -25 64 -11 37 -48 144 -82 238 -72 202 -73 207 -60 186 5 -8 37 -91 70
-185z m121 -360 c0 -5 -4 -3 -9 5 -5 8 -9 22 -9 30 0 16 17 -16 18 -35z m98
-17 c-3 -7 -5 -2 -5 12 0 14 2 19 5 13 2 -7 2 -19 0 -25z m-793 6 c3 -8 2 -12
-4 -9 -6 3 -10 10 -10 16 0 14 7 11 14 -7z m715 -49 c0 -5 -4 -3 -9 5 -5 8 -9
22 -9 30 0 16 17 -16 18 -35z m18 -77 c-3 -8 -6 -5 -6 6 -1 11 2 17 5 13 3 -3
4 -12 1 -19z m90 -30 c-3 -8 -6 -5 -6 6 -1 11 2 17 5 13 3 -3 4 -12 1 -19z
m-73 -4 c3 -8 2 -12 -4 -9 -6 3 -10 10 -10 16 0 14 7 11 14 -7z m16 -59 c0 -5
-5 -3 -10 5 -5 8 -10 20 -10 25 0 6 5 3 10 -5 5 -8 10 -19 10 -25z m7 -47 c-3
-8 -6 -5 -6 6 -1 11 2 17 5 13 3 -3 4 -12 1 -19z m91 -69 c-3 -8 -7 -3 -11 10
-4 17 -3 21 5 13 5 -5 8 -16 6 -23z m41 -149 c0 -10 -3 -8 -9 5 -12 27 -12 43
0 25 5 -8 9 -22 9 -30z m-72 -32 c-3 -7 -5 -2 -5 12 0 14 2 19 5 13 2 -7 2
-19 0 -25z m90 -40 c-3 -8 -6 -5 -6 6 -1 11 2 17 5 13 3 -3 4 -12 1 -19z m32
-88 c0 -8 -7 1 -14 20 -18 46 -17 64 0 25 8 -16 14 -37 14 -45z m-92 -42 c-3
-7 -5 -2 -5 12 0 14 2 19 5 13 2 -7 2 -19 0 -25z m159 -145 c-5 -5 -36 74 -36
90 1 6 10 -10 20 -37 11 -28 18 -51 16 -53z m24 -48 c0 -5 -5 -3 -10 5 -5 8
-10 20 -10 25 0 6 5 3 10 -5 5 -8 10 -19 10 -25z m-153 -47 c-2 -13 -4 -3 -4
22 0 25 2 35 4 23 2 -13 2 -33 0 -45z m173 -3 c0 -5 -5 -3 -10 5 -5 8 -10 20
-10 25 0 6 5 3 10 -5 5 -8 10 -19 10 -25z m29 -57 c5 -13 16 -40 25 -60 9 -21
14 -38 11 -38 -3 0 -9 10 -14 23 -5 12 -16 39 -25 60 -9 20 -14 37 -11 37 3 0
9 -10 14 -22z m-191 -13 c-3 -3 -9 2 -12 12 -6 14 -5 15 5 6 7 -7 10 -15 7
-18z m1 -167 c-1 -79 -5 -168 -9 -198 -6 -42 -7 -33 -4 40 1 52 3 141 3 198 1
56 3 102 6 102 3 0 5 -64 4 -142z m245 56 c3 -8 2 -12 -4 -9 -6 3 -10 10 -10
16 0 14 7 11 14 -7z m54 -99 c21 -39 51 -91 66 -117 15 -27 26 -48 23 -48 -4
0 -53 81 -118 198 -18 31 -25 51 -14 41 2 -3 22 -36 43 -74z m152 -252 c345
-512 764 -826 1220 -913 56 -11 220 -23 220 -17 0 2 -29 18 -65 36 -36 17 -65
33 -65 36 0 3 12 -1 28 -9 48 -25 203 -76 229 -76 15 0 23 -3 20 -7 -12 -11
-199 -3 -302 13 -278 43 -513 146 -745 325 -129 100 -279 251 -393 394 -26 33
-51 65 -56 71 -12 14 -136 196 -145 212 -4 6 -5 12 -2 12 2 0 28 -35 56 -77z
m-469 5 c-3 -21 -6 -26 -9 -15 -3 17 3 47 11 47 2 0 1 -15 -2 -32z m-34 -170
c-3 -8 -6 -5 -6 6 -1 11 2 17 5 13 3 -3 4 -12 1 -19z m-40 -150 c-3 -8 -6 -5
-6 6 -1 11 2 17 5 13 3 -3 4 -12 1 -19z m-26 -75 c-12 -20 -14 -14 -5 12 4 9
9 14 11 11 3 -2 0 -13 -6 -23z m1360 10 c13 -16 12 -17 -3 -4 -10 7 -18 15
-18 17 0 8 8 3 21 -13z m-1378 -58 c-3 -9 -8 -14 -10 -11 -3 3 -2 9 2 15 9 16
15 13 8 -4z m-22 -52 c-12 -20 -14 -14 -5 12 4 9 9 14 11 11 3 -2 0 -13 -6
-23z m-34 -70 c-104 -221 -308 -462 -512 -606 -174 -123 -368 -207 -555 -243
-19 -3 -46 -8 -60 -11 -38 -7 -298 -11 -362 -6 -112 9 -56 18 115 18 217 0
310 9 417 39 388 108 731 395 930 777 45 87 62 107 27 32z m1693 -108 c13 -14
21 -25 18 -25 -2 0 -15 11 -28 25 -13 14 -21 25 -18 25 2 0 15 -11 28 -25z
m111 -92 c13 -16 12 -17 -3 -4 -10 7 -18 15 -18 17 0 8 8 3 21 -13z m124 -80
c11 -7 16 -13 12 -13 -10 0 -87 51 -87 57 0 5 27 -11 75 -44z m-2765 -146 c0
-2 -12 -14 -27 -28 l-28 -24 24 28 c23 25 31 32 31 24z m-60 -51 c0 -2 -8 -10
-17 -17 -16 -13 -17 -12 -4 4 13 16 21 21 21 13z m-40 -30 c0 -2 -8 -10 -17
-17 -16 -13 -17 -12 -4 4 13 16 21 21 21 13z m-1469 -37 c100 -41 287 -103
379 -124 41 -10 79 -21 84 -26 5 -5 -7 -4 -27 2 -83 23 -207 45 -207 37 0 -4
5 -8 12 -8 6 0 9 -2 6 -6 -3 -3 -68 24 -143 60 -76 37 -140 66 -144 66 -8 1
-47 30 -39 30 3 0 38 -14 79 -31z m1429 7 c0 -2 -16 -13 -35 -25 -19 -11 -35
-18 -35 -16 0 5 61 45 68 45 1 0 2 -2 2 -4z m-80 -50 c0 -2 -7 -7 -16 -10 -8
-3 -12 -2 -9 4 6 10 25 14 25 6z m-50 -26 c-8 -5 -19 -10 -25 -10 -5 0 -3 5 5
10 8 5 20 10 25 10 6 0 3 -5 -5 -10z m-45 -20 c-3 -5 -12 -10 -18 -10 -7 0 -6
4 3 10 19 12 23 12 15 0z m-65 -24 c0 -2 -7 -7 -16 -10 -8 -3 -12 -2 -9 4 6
10 25 14 25 6z m-741 -81 c74 -26 193 -62 265 -81 72 -19 113 -32 91 -29 -86
12 -256 59 -385 107 -74 28 -137 53 -140 56 -7 7 18 -1 169 -53z m64 38 c-7
-2 -19 -2 -25 0 -7 3 -2 5 12 5 14 0 19 -2 13 -5z m544 1 c-3 -3 -12 -4 -19
-1 -8 3 -5 6 6 6 11 1 17 -2 13 -5z m-40 -10 c-3 -3 -12 -4 -19 -1 -8 3 -5 6
6 6 11 1 17 -2 13 -5z"/>
</g>
</svg>
